<?xml version="1.0" standalone="no"?>
<!DOCTYPE svg PUBLIC "-//W3C//DTD SVG 20010904//EN"
 "http://www.w3.org/TR/2001/REC-SVG-20010904/DTD/svg10.dtd">
<svg version="1.0" xmlns="http://www.w3.org/2000/svg"
 width="600.000000pt" height="450.000000pt" viewBox="0 0 600.000000 450.000000"
 preserveAspectRatio="xMidYMid meet">

<g transform="translate(0.000000,450.000000) scale(0.100000,-0.100000)"
fill="#000000" stroke="none">
<path d="M862 2309 l3 -594 35 3 c53 6 115 39 156 84 64 72 68 89 72 333 l4
220 291 -297 c299 -305 331 -331 412 -340 l30 -3 3 594 2 594 -41 -6 c-97 -13
-195 -99 -218 -193 -6 -24 -11 -133 -11 -243 l0 -200 -212 217 c-333 340 -350
357 -398 385 -25 14 -64 29 -88 33 l-42 7 2 -594z"/>
<path d="M1960 2641 l0 -260 48 -7 c93 -14 439 30 469 60 4 3 -52 6 -123 6
l-129 0 1 98 1 97 142 0 143 0 29 -33 c34 -37 38 -79 12 -119 -17 -26 -17 -26
6 -14 90 49 152 148 159 257 4 65 2 73 -19 94 -13 12 -49 34 -79 49 l-55 26
-302 3 -303 3 0 -260z"/>
<path d="M3195 2886 c-109 -35 -190 -102 -234 -196 -22 -47 -26 -68 -26 -150
0 -87 3 -101 33 -162 38 -77 92 -130 171 -167 52 -24 68 -26 241 -31 201 -5
219 -10 246 -62 20 -39 12 -87 -22 -119 l-26 -24 -324 -3 -324 -3 0 -27 c0
-43 43 -124 88 -164 69 -62 117 -71 375 -66 198 4 228 7 277 26 80 31 153 99
192 180 30 60 33 75 33 157 0 77 -4 98 -26 145 -37 77 -87 131 -156 167 -77
41 -148 53 -320 53 -139 0 -145 1 -168 24 -50 50 -44 114 14 153 32 22 44 23
195 23 148 0 165 2 212 24 60 28 113 87 137 153 32 90 54 83 -265 82 -199 0
-295 -4 -323 -13z"/>
<path d="M2820 2528 c0 -36 -53 -119 -109 -171 -115 -107 -274 -150 -565 -151
l-188 -1 4 -145 c5 -172 17 -210 88 -273 48 -43 103 -67 154 -67 l27 0 -2 228
-2 227 169 5 c157 5 173 7 226 32 110 51 193 166 205 283 3 30 3 55 -1 55 -3
0 -6 -10 -6 -22z"/>
<path d="M3625 1600 c-3 -5 -1 -10 4 -10 6 0 11 5 11 10 0 6 -2 10 -4 10 -3 0
-8 -4 -11 -10z"/>
<path d="M3975 1600 c-3 -5 -1 -10 4 -10 6 0 11 5 11 10 0 6 -2 10 -4 10 -3 0
-8 -4 -11 -10z"/>
<path d="M2930 1525 c0 -43 4 -75 10 -75 6 0 10 32 10 75 0 43 -4 75 -10 75
-6 0 -10 -32 -10 -75z"/>
<path d="M3571 1588 c-1 -9 -7 -19 -13 -22 -10 -5 -10 -7 0 -12 7 -3 12 -24
12 -49 0 -29 5 -45 15 -49 8 -3 15 -1 15 4 0 6 -4 10 -10 10 -15 0 -12 77 3
83 8 4 9 8 1 14 -6 4 -14 15 -17 23 -4 12 -6 12 -6 -2z"/>
<path d="M4785 1588 c-5 -17 -25 -117 -25 -126 0 -4 19 -8 42 -7 37 0 45 4 56
28 8 16 11 40 7 54 -5 22 -10 25 -39 21 -29 -3 -32 -1 -28 19 5 24 -6 32 -13
11z m63 -69 c3 -28 -22 -63 -41 -56 -25 8 -31 35 -13 62 21 33 50 29 54 -6z"/>
<path d="M5005 1578 c-4 -10 -15 -18 -25 -18 -10 0 -24 -16 -35 -40 -10 -22
-22 -40 -27 -40 -4 0 -8 18 -8 40 0 22 -5 40 -10 40 -7 0 -9 -21 -4 -62 6 -53
4 -63 -12 -75 -19 -14 -18 -15 1 -11 13 2 32 27 55 70 34 67 59 84 51 37 -7
-44 -6 -62 5 -66 7 -2 10 5 7 21 -3 14 1 38 9 53 8 17 12 37 7 49 -6 18 -7 18
-14 2z"/>
<path d="M3236 1554 c-34 -33 -10 -104 34 -104 27 0 50 27 50 60 0 33 -23 60
-50 60 -10 0 -26 -7 -34 -16z m62 -21 c14 -25 -3 -63 -27 -63 -28 0 -45 34
-31 60 13 25 46 26 58 3z"/>
<path d="M3341 1560 c-1 -22 31 -100 41 -100 9 0 29 41 43 90 12 40 -12 11
-29 -35 l-14 -40 -11 30 c-20 54 -30 71 -30 55z"/>
<path d="M3463 1563 c-7 -2 -13 -11 -13 -19 0 -11 4 -12 19 -3 20 13 56 5 46
-11 -3 -5 -17 -10 -29 -10 -13 0 -29 -7 -37 -16 -18 -22 1 -50 32 -46 13 1 31
3 39 3 12 0 15 10 12 42 -6 60 -26 78 -69 60z m57 -61 c0 -14 -23 -32 -42 -32
-18 0 -25 20 -11 33 9 10 53 9 53 -1z"/>
<path d="M3627 1563 c-11 -10 -8 -103 3 -103 6 0 10 25 10 55 0 56 -1 60 -13
48z"/>
<path d="M3681 1556 c-7 -8 -11 -32 -9 -53 2 -31 8 -39 30 -47 35 -12 68 15
68 55 0 50 -60 80 -89 45z m64 -46 c0 -30 -3 -35 -27 -38 -30 -4 -44 23 -33
59 5 15 14 19 33 17 24 -3 27 -8 27 -38z"/>
<path d="M3977 1563 c-11 -10 -8 -103 3 -103 6 0 10 25 10 55 0 56 -1 60 -13
48z"/>
<path d="M4215 1556 c-35 -26 -17 -106 24 -106 23 0 58 26 48 36 -4 5 -12 3
-16 -5 -10 -15 -53 -11 -58 6 -3 7 10 13 34 15 43 3 54 25 28 52 -20 20 -35
20 -60 2z m53 -23 c2 -9 -7 -13 -27 -13 -30 0 -39 9 -24 24 11 10 46 3 51 -11z"/>
<path d="M4430 1550 c-24 -24 -25 -48 -4 -78 17 -24 53 -29 72 -10 21 21 13
29 -13 12 -20 -13 -28 -14 -40 -4 -25 21 -17 30 25 30 33 0 40 3 40 19 0 18
-34 51 -52 51 -5 0 -17 -9 -28 -20z m58 -17 c2 -9 -7 -13 -27 -13 -30 0 -39 9
-24 24 11 10 46 3 51 -11z"/>
<path d="M2980 1508 c0 -59 18 -64 22 -5 2 35 7 43 26 45 23 4 26 -4 22 -60
-1 -14 4 -29 10 -33 8 -5 10 9 8 47 l-3 53 -42 0 -43 1 0 -48z"/>
<path d="M3100 1509 c0 -60 18 -65 22 -6 3 37 6 42 28 42 23 0 26 -5 31 -50
l6 -50 -1 55 -1 55 -42 1 -43 2 0 -49z"/>
<path d="M3790 1509 c0 -60 18 -65 22 -6 3 37 6 42 28 42 23 0 26 -5 31 -50
l6 -50 -1 55 -1 55 -42 1 -43 2 0 -49z"/>
<path d="M4020 1509 c0 -60 18 -65 22 -6 2 35 7 43 26 45 20 3 22 -1 22 -42 0
-25 5 -48 11 -51 7 -5 9 11 7 47 l-3 53 -42 1 -43 2 0 -49z"/>
<path d="M4317 1523 c29 -72 34 -78 45 -60 18 33 37 97 28 97 -4 0 -15 -19
-23 -42 -10 -28 -17 -38 -21 -28 -3 8 -10 27 -15 43 -6 15 -15 27 -20 27 -6 0
-3 -17 6 -37z"/>
<path d="M4531 1509 c-1 -26 3 -50 9 -54 6 -4 10 9 10 33 0 30 6 43 23 55 22
15 22 15 -9 15 -30 -1 -31 -2 -33 -49z"/>
<path d="M4600 1552 c0 -5 7 -29 15 -52 19 -54 19 -80 -1 -80 -8 0 -13 -4 -9
-10 13 -21 35 5 59 71 29 79 29 79 18 79 -5 0 -14 -18 -21 -40 -13 -45 -26
-45 -36 0 -6 28 -25 52 -25 32z"/>
<path d="M5055 1544 c-10 -11 -15 -29 -13 -53 3 -31 7 -36 31 -39 29 -3 57 12
57 31 0 5 -9 2 -21 -9 -15 -13 -24 -16 -36 -8 -34 21 -26 34 21 34 47 0 54 7
36 41 -13 23 -53 25 -75 3z m63 -17 c3 -13 -3 -17 -27 -17 -33 0 -39 8 -19 28
17 17 42 11 46 -11z"/>
</g>
</svg>
